<?xml version="1.0" encoding="UTF-8" standalone="no"?>
<!DOCTYPE svg PUBLIC "-//W3C//DTD SVG 1.1//EN" "http://www.w3.org/Graphics/SVG/1.1/DTD/svg11.dtd">
<svg xmlns="http://www.w3.org/2000/svg" xmlns:xlink="http://www.w3.org/1999/xlink" version="1.1" width="1024pt" height="768pt" viewBox="0 0 1024 768">
<g enable-background="new">
<g id="Layer-1" data-name="Layer 1">
<clipPath id="cp0">
<path transform="matrix(1,0,0,-1,0,768)" d="M 0 768 L 1024 768 L 1024 0 L 0 0 Z "/>
</clipPath>
<g clip-path="url(#cp0)">
<path transform="matrix(1,0,0,-1,772.1611,443.2803)" d="M 0 0 C -.052 -11.295 -3.758 -17.428 -13.996 -23.14 C -67.639 -53.465 -121.735 -85.033 -121.735 -85.033 C -121.735 -85.033 -209.422 -134.942 -234.166 -150.045 C -251.443 -161.935 -264.095 -157.232 -280.156 -147.552 C -305.291 -132.404 -331.571 -117.842 -356.828 -103.429 C -367.742 -97.203 -372.395 -91.388 -372.401 -78.446 C -372.417 -46.374 -372.417 -21.273 -372.363 15.552 C -372.784 31.982 -367.932 40.689 -352.411 50.197 C -310.604 75.8 -267.082 98.437 -225.694 124.711 C -209.615 134.916 -193.879 142.771 -176.454 153.87 C -173.496 155.754 -169.104 158.304 -166.996 155.226 C -165.246 152.665 -168.589 148.319 -170.387 146.133 C -190.271 121.93 -211.339 98.568 -229.532 73.147 C -260.437 33.781 -262.381 30.563 -271.436 .072 C -274.09 -14.388 -275.28 -26.02 -273.959 -36.468 C -271.574 -55.313 -266.804 -55.338 -252.227 -46.85 C -209.252 -21.805 -166.306 3.339 -122.616 27.097 C -106.272 35.98 -100.061 47.951 -100.147 65.613 C -100.559 145.723 -100.165 226.331 -100.727 305.946 C -100.944 336.915 -102.605 337.875 -78.827 324.178 C -55.168 310.55 -38.092 300.426 -16.9 288.472 C -5.687 282.146 -.173 271.55 -.173 258.587 " fill="#ff0000" fill-rule="evenodd"/>
<path transform="matrix(1,0,0,-1,262.3403,179.74018)" d="M 0 0 C .052 11.294 3.758 17.427 13.996 23.139 C 67.639 53.464 121.735 85.033 121.735 85.033 C 121.735 85.033 209.421 134.942 234.167 150.045 C 251.444 161.935 264.094 157.232 280.156 147.551 C 305.291 132.403 331.571 117.841 356.828 103.428 C 367.743 97.202 372.394 91.388 372.401 78.445 C 372.417 46.374 372.417 21.272 372.363 -15.553 C 372.784 -31.983 367.932 -40.69 352.412 -50.198 C 310.603 -75.801 267.083 -98.437 225.694 -124.711 C 209.615 -134.915 193.878 -142.771 176.454 -153.871 C 173.497 -155.755 169.104 -158.304 166.996 -155.227 C 165.246 -152.665 168.589 -148.32 170.387 -146.133 C 190.271 -121.93 211.339 -98.569 229.533 -73.148 C 260.438 -33.782 262.381 -30.564 271.436 -.073 C 274.09 14.388 275.28 26.02 273.958 36.467 C 271.574 55.313 266.804 55.338 252.227 46.849 C 209.251 21.804 166.306 -3.34 122.616 -27.097 C 106.272 -35.982 100.06 -47.952 100.147 -65.613 C 100.559 -145.724 100.166 -226.331 100.727 -305.945 C 100.945 -336.916 102.605 -337.875 78.827 -324.179 C 55.168 -310.551 38.091 -300.427 16.9 -288.472 C 5.687 -282.146 .173 -271.55 .173 -258.588 " fill="#009933" fill-rule="evenodd"/>
</g>
<text xml:space="preserve" transform="matrix(1 0 -0 1 0 768)" font-size="129.7451" font-family="TwCenMT"><tspan y="-60.6543" x="253.96 325.5793 390.45188 436.2519 471.4128 528.24118 604.01229 677.17556">portuDAO</tspan></text>
</g>
</g>
</svg>
