<svg width="127" height="23" viewBox="0 0 127 23" fill="none" xmlns="http://www.w3.org/2000/svg">
<path d="M25.6319 6.34304C21.0183 6.34304 17.4134 9.85053 17.4134 14.546C17.4134 19.2415 20.9273 22.719 25.6319 22.719C30.3366 22.719 33.9116 19.1815 33.9116 14.516C33.9116 9.88054 30.3977 6.34304 25.6319 6.34304ZM25.6631 19.3351C23.0358 19.3351 21.1106 17.2915 21.1106 14.5472C21.1106 11.7717 23.0047 9.7293 25.6319 9.7293C28.2904 9.7293 30.2144 11.8029 30.2144 14.5472C30.2144 17.2915 28.2904 19.3351 25.6631 19.3351ZM34.9191 9.91172H37.2109V22.4154H40.8769V6.64784H34.9191V9.91172ZM8.18738 9.72815C10.1126 9.72815 11.6401 10.9173 12.22 12.6861H16.1004C15.3972 8.90496 12.2811 6.34304 8.2185 6.34304C3.60489 6.34304 0 9.85053 0 14.5472C0 19.2439 3.51382 22.7202 8.2185 22.7202C12.19 22.7202 15.3672 20.1582 16.0704 16.346H12.22C11.6701 18.1147 10.1426 19.3351 8.21735 19.3351C5.55893 19.3351 3.69596 17.2915 3.69596 14.5472C3.69712 11.7717 5.53011 9.72815 8.18738 9.72815ZM104.575 13.022L101.887 12.626C100.604 12.4436 99.6872 12.0164 99.6872 11.0097C99.6872 9.91172 100.879 9.36331 102.498 9.36331C104.27 9.36331 105.401 10.1253 105.645 11.3757H109.189C108.791 8.20415 106.347 6.34419 102.59 6.34419C98.7096 6.34419 96.1434 8.32653 96.1434 11.1321C96.1434 13.8152 97.8243 15.3715 101.215 15.8587L103.903 16.2548C105.217 16.4372 105.951 16.9567 105.951 17.9323C105.951 19.1827 104.667 19.7011 102.896 19.7011C100.726 19.7011 99.5039 18.8167 99.3206 17.4751H95.7157C96.0524 20.5554 98.4652 22.7202 102.864 22.7202C106.867 22.7202 109.524 20.8902 109.524 17.7487C109.524 14.9432 107.6 13.4792 104.575 13.022ZM39.0439 0.152399C37.6997 0.152399 36.691 1.12798 36.691 2.46956C36.691 3.81113 37.6986 4.78672 39.0439 4.78672C40.3881 4.78672 41.3969 3.81113 41.3969 2.46956C41.3969 1.12798 40.3881 0.152399 39.0439 0.152399ZM92.844 12.0465C92.844 8.63133 90.7667 6.34419 86.3675 6.34419C82.2127 6.34419 79.8909 8.44892 79.4321 11.6816H83.0681C83.2514 10.4313 84.229 9.39448 86.3064 9.39448C88.1705 9.39448 89.087 10.2177 89.087 11.2244C89.087 12.536 87.4062 12.8708 85.3288 13.0844C82.5182 13.3892 79.0355 14.3648 79.0355 18.0247C79.0355 20.8614 81.144 22.6902 84.5045 22.6902C87.1318 22.6902 88.7815 21.5922 89.6069 19.8535C89.7291 21.4086 90.89 22.4154 92.5097 22.4154H94.6482V19.1526H92.8452V12.0465H92.844ZM89.2392 16.0111C89.2392 18.1159 87.4062 19.671 85.1755 19.671C83.8001 19.671 82.6392 19.0915 82.6392 17.8723C82.6392 16.3171 84.5033 15.8899 86.2141 15.7075C87.8638 15.5551 88.7803 15.1891 89.2392 14.4872V16.0111ZM69.7783 6.34304C67.7309 6.34304 66.0201 7.1974 64.7981 8.63018V0H61.1321V22.4154H64.737V20.3418C65.959 21.8358 67.7009 22.7202 69.7783 22.7202C74.1775 22.7202 77.508 19.2439 77.508 14.5472C77.508 9.85053 74.1164 6.34304 69.7783 6.34304ZM69.2284 19.3351C66.6011 19.3351 64.6759 17.2915 64.6759 14.5472C64.6759 11.8029 66.6311 9.7293 69.2584 9.7293C71.9168 9.7293 73.7798 11.7728 73.7798 14.5472C73.7798 17.2915 71.8557 19.3351 69.2284 19.3351ZM52.3637 6.34304C49.9808 6.34304 48.4222 7.31862 47.5057 8.69137V6.64784H43.8697V22.4142H47.5357V13.8452C47.5357 11.4357 49.0632 9.72815 51.3238 9.72815C53.4324 9.72815 54.7454 11.2221 54.7454 13.388V22.4154H58.4114V13.1144C58.4126 9.14857 56.3663 6.34304 52.3637 6.34304ZM127 14.0288C127 9.51571 123.701 6.34419 119.27 6.34419C114.566 6.34419 111.113 9.8817 111.113 14.5472C111.113 19.4574 114.81 22.7202 119.331 22.7202C123.151 22.7202 126.145 20.463 126.908 17.2615H123.088C122.539 18.6643 121.194 19.4574 119.391 19.4574C117.038 19.4574 115.267 17.9935 114.87 15.4316H126.999V14.0288H127ZM115.084 12.8085C115.665 10.6125 117.315 9.54573 119.209 9.54573C121.287 9.54573 122.875 10.7349 123.242 12.8085H115.084Z" fill="#0052FF"/>
</svg>
