<svg width="135" height="27" viewBox="0 0 135 27" fill="none" xmlns="http://www.w3.org/2000/svg">
<path d="M119.372 13.337C118.68 12.8649 117.924 12.5502 117.168 12.141C116.696 11.8893 116.192 11.6375 115.783 11.2913C115.09 10.7248 115.216 9.59182 115.972 9.08827C117.011 8.39589 118.743 8.77355 118.932 10.1898C118.932 10.2213 118.963 10.2527 118.995 10.2527H120.569C120.601 10.2527 120.632 10.2213 120.632 10.1898C120.538 9.21415 120.16 8.39588 119.467 7.86086C118.806 7.35731 118.05 7.10554 117.231 7.10554C113.074 7.10554 112.697 11.5116 114.932 12.8964C115.184 13.0537 117.389 14.1552 118.176 14.6588C118.963 15.1309 119.183 16.0121 118.869 16.7045C118.554 17.3339 117.766 17.7745 116.979 17.7116C116.098 17.6486 115.436 17.1765 115.184 16.4527C115.153 16.3268 115.121 16.075 115.121 15.9491C115.121 15.9177 115.09 15.8862 115.058 15.8862H113.358C113.326 15.8862 113.295 15.9177 113.295 15.9491C113.295 17.1765 113.61 17.8689 114.429 18.4984C115.216 19.0963 116.066 19.3481 116.979 19.3481C119.309 19.3481 120.506 18.0263 120.758 16.673C120.947 15.3512 120.569 14.1552 119.372 13.337Z" fill="#161616"/>
<path d="M45.1494 7.35732H44.3936H43.5749C43.5434 7.35732 43.5119 7.38878 43.5119 7.38878L42.0949 12.0152C42.0634 12.0781 42.0004 12.0781 41.9689 12.0152L40.5519 7.38878C40.5519 7.35731 40.5204 7.35732 40.4889 7.35732H39.6702H38.9144H37.9067C37.8752 7.35732 37.8438 7.38879 37.8438 7.42026V19.2222C37.8438 19.2537 37.8752 19.2852 37.9067 19.2852H39.6072C39.6387 19.2852 39.6702 19.2537 39.6702 19.2222V10.2527C39.6702 10.1898 39.7646 10.1583 39.7961 10.2213L41.2132 14.8791L41.3076 15.1938C41.3076 15.2253 41.3391 15.2253 41.3706 15.2253H42.6932C42.7247 15.2253 42.7562 15.1938 42.7562 15.1938L42.8506 14.8791L44.2677 10.2213C44.2991 10.1583 44.3936 10.1583 44.3936 10.2527V19.2222C44.3936 19.2537 44.4251 19.2852 44.4566 19.2852H46.157C46.1885 19.2852 46.22 19.2537 46.22 19.2222V7.42026C46.22 7.38879 46.1885 7.35732 46.157 7.35732H45.1494Z" fill="#161616"/>
<path d="M93.203 7.35732C93.1716 7.35732 93.1401 7.38878 93.1401 7.38878L91.723 12.0152C91.6915 12.0781 91.6286 12.0781 91.5971 12.0152L90.18 7.38878C90.18 7.35731 90.1485 7.35732 90.1171 7.35732H87.5034C87.4719 7.35732 87.4404 7.38879 87.4404 7.42026V19.2222C87.4404 19.2537 87.4719 19.2852 87.5034 19.2852H89.2039C89.2353 19.2852 89.2668 19.2537 89.2668 19.2222V10.2527C89.2668 10.1898 89.3613 10.1583 89.3928 10.2213L90.8098 14.8791L90.9043 15.1938C90.9043 15.2253 90.9358 15.2253 90.9673 15.2253H92.2898C92.3213 15.2253 92.3528 15.1938 92.3528 15.1938L92.4473 14.8791L93.8643 10.2213C93.8958 10.1583 93.9903 10.1583 93.9903 10.2527V19.2222C93.9903 19.2537 94.0218 19.2852 94.0533 19.2852H95.7537C95.7852 19.2852 95.8167 19.2537 95.8167 19.2222V7.42026C95.8167 7.38879 95.7852 7.35732 95.7537 7.35732H93.203Z" fill="#161616"/>
<path d="M71.1617 7.35732H67.9812H66.2808H63.0688C63.0374 7.35732 63.0059 7.38879 63.0059 7.42026V8.89944C63.0059 8.93091 63.0374 8.96238 63.0688 8.96238H66.1863V19.2222C66.1863 19.2537 66.2178 19.2852 66.2493 19.2852H67.9497C67.9812 19.2852 68.0127 19.2537 68.0127 19.2222V8.96238H71.1302C71.1617 8.96238 71.1932 8.93091 71.1932 8.89944V7.42026C71.2247 7.38879 71.1932 7.35732 71.1617 7.35732Z" fill="#161616"/>
<path d="M81.2353 19.2852H82.7783C82.8098 19.2852 82.8413 19.2537 82.8413 19.1907L79.6293 7.35731C79.6293 7.32584 79.5979 7.32584 79.5664 7.32584H78.9681H77.9289H77.3306C77.2991 7.32584 77.2676 7.35731 77.2676 7.35731L74.0557 19.1907C74.0557 19.2222 74.0872 19.2852 74.1186 19.2852H75.6616C75.6931 19.2852 75.7246 19.2537 75.7246 19.2537L76.6693 15.7918C76.6693 15.7603 76.7008 15.7603 76.7323 15.7603H80.1647C80.1962 15.7603 80.2276 15.7918 80.2276 15.7918L81.1723 19.2537C81.1723 19.2537 81.2038 19.2852 81.2353 19.2852ZM77.1417 14.0608L78.4012 9.43446C78.4327 9.37151 78.4957 9.37151 78.5272 9.43446L79.7868 14.0608C79.7868 14.0923 79.7553 14.1552 79.7238 14.1552H77.2361C77.1731 14.1552 77.1417 14.0923 77.1417 14.0608Z" fill="#161616"/>
<path d="M107.75 19.2852H109.293C109.324 19.2852 109.356 19.2537 109.356 19.1907L106.144 7.35731C106.144 7.32584 106.112 7.32584 106.081 7.32584H105.483H104.444H103.845C103.814 7.32584 103.782 7.35731 103.782 7.35731L100.57 19.1907C100.57 19.2222 100.602 19.2852 100.633 19.2852H102.176C102.208 19.2852 102.239 19.2537 102.239 19.2537L103.184 15.7918C103.184 15.7603 103.215 15.7603 103.247 15.7603H106.679C106.711 15.7603 106.742 15.7918 106.742 15.7918L107.687 19.2537C107.687 19.2537 107.718 19.2852 107.75 19.2852ZM103.656 14.0608L104.916 9.43446C104.947 9.37151 105.01 9.37151 105.042 9.43446L106.301 14.0608C106.301 14.0923 106.27 14.1552 106.238 14.1552H103.751C103.688 14.1552 103.656 14.0923 103.656 14.0608Z" fill="#161616"/>
<path d="M53.1477 17.5227V13.872C53.1477 13.8405 53.1792 13.8091 53.2107 13.8091H57.7767C57.8082 13.8091 57.8396 13.7776 57.8396 13.7461V12.2669C57.8396 12.2355 57.8082 12.204 57.7767 12.204H53.2107C53.1792 12.204 53.1477 12.1725 53.1477 12.141V9.02532C53.1477 8.99385 53.1792 8.96238 53.2107 8.96238H58.375C58.4065 8.96238 58.438 8.93091 58.438 8.89944V7.42026C58.438 7.38879 58.4065 7.35732 58.375 7.35732H53.1477H51.3843C51.3528 7.35732 51.3213 7.38879 51.3213 7.42026V8.96238V12.2355V13.8405V17.6171V19.2222C51.3213 19.2537 51.3528 19.2852 51.3843 19.2852H53.1477H58.5954C58.6269 19.2852 58.6584 19.2537 58.6584 19.2222V17.6801C58.6584 17.6486 58.6269 17.6171 58.5954 17.6171H53.1792C53.1792 17.5857 53.1477 17.5542 53.1477 17.5227Z" fill="#161616"/>
<path d="M134.988 19.1593L129.068 13.0537C129.036 13.0222 129.036 12.9908 129.068 12.9593L134.39 7.42026C134.421 7.38878 134.39 7.32584 134.358 7.32584H132.185C132.154 7.32584 132.154 7.32584 132.154 7.35731L127.619 12.0781C127.588 12.1096 127.525 12.0781 127.525 12.0466V7.45173C127.525 7.42025 127.493 7.38878 127.462 7.38878H125.73C125.698 7.38878 125.667 7.42025 125.667 7.45173V19.2537C125.667 19.2852 125.698 19.3166 125.73 19.3166H127.43C127.462 19.3166 127.493 19.2852 127.493 19.2537V14.0608C127.493 13.9979 127.556 13.9664 127.588 14.0294L132.689 19.3166L132.721 19.3481H134.893C134.988 19.2852 135.019 19.1907 134.988 19.1593Z" fill="#161616"/>
<path d="M26.1655 1L15.8369 8.67914L17.7578 4.14719L26.1655 1Z" fill="#E17726" stroke="#E17726" stroke-linecap="round" stroke-linejoin="round"/>
<path d="M2.29883 1L12.5645 8.74209L10.7381 4.14719L2.29883 1Z" fill="#E27625" stroke="#E27625" stroke-linecap="round" stroke-linejoin="round"/>
<path d="M22.4527 18.7816L19.6816 22.9989L25.6017 24.6354L27.2707 18.876L22.4527 18.7816Z" fill="#E27625" stroke="#E27625" stroke-linecap="round" stroke-linejoin="round"/>
<path d="M1.22754 18.876L2.8965 24.6354L8.78507 22.9989L6.04547 18.7816L1.22754 18.876Z" fill="#E27625" stroke="#E27625" stroke-linecap="round" stroke-linejoin="round"/>
<path d="M8.4695 11.669L6.83203 14.1553L12.6576 14.407L12.4687 8.11265L8.4695 11.669Z" fill="#E27625" stroke="#E27625" stroke-linecap="round" stroke-linejoin="round"/>
<path d="M20.0221 11.669L15.9599 8.04971L15.834 14.407L21.6596 14.1553L20.0221 11.669Z" fill="#E27625" stroke="#E27625" stroke-linecap="round" stroke-linejoin="round"/>
<path d="M8.78418 22.9989L12.311 21.2994L9.25653 18.9075L8.78418 22.9989Z" fill="#E27625" stroke="#E27625" stroke-linecap="round" stroke-linejoin="round"/>
<path d="M16.1875 21.2994L19.6829 22.9989L19.2105 18.9075L16.1875 21.2994Z" fill="#E27625" stroke="#E27625" stroke-linecap="round" stroke-linejoin="round"/>
<path d="M19.6721 22.9988L16.1768 21.2994L16.4602 23.5653L16.4287 24.541L19.6721 22.9988Z" fill="#D5BFB2" stroke="#D5BFB2" stroke-linecap="round" stroke-linejoin="round"/>
<path d="M8.78125 22.9988L12.0562 24.541L12.0247 23.5653L12.3081 21.2994L8.78125 22.9988Z" fill="#D5BFB2" stroke="#D5BFB2" stroke-linecap="round" stroke-linejoin="round"/>
<path d="M12.1112 17.3968L9.18262 16.5471L11.2295 15.603L12.1112 17.3968Z" fill="#233447" stroke="#233447" stroke-linecap="round" stroke-linejoin="round"/>
<path d="M16.3682 17.3968L17.2184 15.603L19.2967 16.5471L16.3682 17.3968Z" fill="#233447" stroke="#233447" stroke-linecap="round" stroke-linejoin="round"/>
<path d="M8.78062 22.9989L9.28445 18.7816L6.04102 18.876L8.78062 22.9989Z" fill="#CC6228" stroke="#CC6228" stroke-linecap="round" stroke-linejoin="round"/>
<path d="M19.2002 18.7816L19.6725 22.9989L22.4436 18.876L19.2002 18.7816Z" fill="#CC6228" stroke="#CC6228" stroke-linecap="round" stroke-linejoin="round"/>
<path d="M21.6606 14.1552L15.835 14.407L16.3703 17.3968L17.2205 15.603L19.2988 16.5471L21.6606 14.1552Z" fill="#CC6228" stroke="#CC6228" stroke-linecap="round" stroke-linejoin="round"/>
<path d="M9.19083 16.5471L11.2377 15.603L12.1194 17.3968L12.6547 14.407L6.8291 14.1552L9.19083 16.5471Z" fill="#CC6228" stroke="#CC6228" stroke-linecap="round" stroke-linejoin="round"/>
<path d="M6.82324 14.1552L9.24795 18.9075L9.18497 16.5471L6.82324 14.1552Z" fill="#E27525" stroke="#E27525" stroke-linecap="round" stroke-linejoin="round"/>
<path d="M19.2986 16.5471L19.2041 18.9075L21.6603 14.1552L19.2986 16.5471Z" fill="#E27525" stroke="#E27525" stroke-linecap="round" stroke-linejoin="round"/>
<path d="M12.6476 14.407L12.1123 17.3969L12.7736 20.9532L12.931 16.2639L12.6476 14.407Z" fill="#E27525" stroke="#E27525" stroke-linecap="round" stroke-linejoin="round"/>
<path d="M15.8332 14.407L15.5498 16.2639L15.6758 20.9532L16.3685 17.3969L15.8332 14.407Z" fill="#E27525" stroke="#E27525" stroke-linecap="round" stroke-linejoin="round"/>
<path d="M16.3705 17.3969L15.6777 20.9532L16.1816 21.2994L19.2046 18.9075L19.2991 16.5471L16.3705 17.3969Z" fill="#F5841F" stroke="#F5841F" stroke-linecap="round" stroke-linejoin="round"/>
<path d="M9.18262 16.5471L9.2456 18.9075L12.3001 21.2994L12.7724 20.9532L12.1112 17.3969L9.18262 16.5471Z" fill="#F5841F" stroke="#F5841F" stroke-linecap="round" stroke-linejoin="round"/>
<path d="M16.4333 24.541L16.4647 23.5653L16.1813 23.345H12.2766L12.0247 23.5653L12.0562 24.541L8.78125 22.9989L9.91488 23.943L12.2451 25.5481H16.2128L18.5431 23.943L19.6767 22.9989L16.4333 24.541Z" fill="#C0AC9D" stroke="#C0AC9D" stroke-linecap="round" stroke-linejoin="round"/>
<path d="M16.1801 21.2994L15.6762 20.9532H12.7792L12.3068 21.2994L12.0234 23.5653L12.2754 23.345H16.1801L16.4635 23.5653L16.1801 21.2994Z" fill="#161616" stroke="#161616" stroke-linecap="round" stroke-linejoin="round"/>
<path d="M26.5999 9.18269L27.4816 4.93398L26.159 1L16.1768 8.42736L20.0185 11.669L25.4347 13.2426L26.6313 11.8578L26.1275 11.4801L26.9462 10.7248L26.3165 10.2213L27.1352 9.59182L26.5999 9.18269Z" fill="#763E1A" stroke="#763E1A" stroke-linecap="round" stroke-linejoin="round"/>
<path d="M1 4.93398L1.88171 9.18269L1.3149 9.59182L2.13363 10.2213L1.50384 10.7248L2.35406 11.4801L1.81873 11.8578L3.01534 13.2426L8.46307 11.669L12.3048 8.42736L2.29108 1L1 4.93398Z" fill="#763E1A" stroke="#763E1A" stroke-linecap="round" stroke-linejoin="round"/>
<path d="M25.4391 13.2426L20.0228 11.669L21.6603 14.1552L19.2041 18.9075L22.4475 18.876H27.2655L25.4391 13.2426Z" fill="#F5841F" stroke="#F5841F" stroke-linecap="round" stroke-linejoin="round"/>
<path d="M8.46041 11.669L3.01269 13.2426L1.21777 18.876H6.0357L9.24765 18.9075L6.82295 14.1552L8.46041 11.669Z" fill="#F5841F" stroke="#F5841F" stroke-linecap="round" stroke-linejoin="round"/>
<path d="M15.8357 14.407L16.1821 8.42737L17.7566 4.14719H10.7344L12.3089 8.42737L12.6552 14.407L12.7812 16.2953V20.9532H15.6783V16.2953L15.8357 14.407Z" fill="#F5841F" stroke="#F5841F" stroke-linecap="round" stroke-linejoin="round"/>
</svg>
